REM MD5 6e1423e2bbe4727470de43399068759c
FILE "Hyper PlayStation Re-mix 1998 No. 4 (Japan).bin" BINARY
  TRACK 01 MODE2/2352
    INDEX 01 00:00:00
  TRACK 02 AUDIO
    INDEX 00 52:40:63
    INDEX 01 52:43:63
  TRACK 03 AUDIO
    INDEX 00 55:03:11
    INDEX 01 55:06:11
REM LEADOUT 59:31:55
